<?xml version="1.0" encoding="UTF-8"?>
<svg xmlns="http://www.w3.org/2000/svg" viewBox="0 0 180 180" width="180" height="180">
<path d="M80.37 0.06C86.8 0.06 93.23 0.06 99.66 0.06C100.21 1.12 103.27 0.99 104.48 1.13C108.79 1.62 113.22 2.91 117.35 4.16C130.3 8.08 142.99 15.68 152.62 25.22C162.29 34.8 170.31 46.45 174.83 59.33C176.48 64.04 177.74 68.91 178.75 73.82C179.01 75.11 178.72 78.33 179.94 78.96C179.94 86.42 179.94 93.87 179.94 101.33C178.8 101.9 179.03 104.72 178.82 105.96C178.13 110 177.18 114.37 175.73 118.2C170.7 131.46 164.03 143.59 153.86 153.7C143.67 163.84 131.6 170.78 118.2 175.73C114.34 177.16 110 178.14 105.94 178.82C104.72 179.02 101.93 178.78 101.35 179.94C93.88 179.94 86.41 179.94 78.94 179.94C78.41 178.8 75.5 179.02 74.32 178.84C70.21 178.19 65.73 177.16 61.84 175.67C48 170.34 35.95 163.35 25.39 152.78C15.53 142.92 8.85 130.55 4.23 117.58C2.81 113.58 1.71 108.97 1.15 104.75C0.98 103.52 1.21 100.31 0.06 99.7C0.06 93.26 0.06 86.81 0.06 80.36C1.16 79.8 0.98 76.79 1.13 75.54C1.66 71.29 2.86 66.77 4.19 62.71C8.7 49.07 16.27 36.52 26.48 26.31C36.61 16.18 49.17 8.66 62.72 4.2C66.78 2.86 71.3 1.66 75.55 1.14C76.8 0.98 79.84 1.14 80.37 0.06ZM73.59 59.83C71.06 59.17 67.36 65.99 65.65 67.81C60.13 73.64 54.33 79.23 47.99 84.16C45.47 86.12 42.54 89.3 39.48 90.17C39.14 87 43.26 77.89 44.23 74.12C44.69 72.33 46.29 68.87 43.5 68.62C41.52 71.32 39.81 88.21 36.66 91.83C35.54 93.11 32.91 92.68 31.47 93.26C27.27 94.97 21.14 97.45 18.62 101.5C22.43 104.59 31.44 94.97 34.89 95.17C31.87 103.49 28.85 111.82 25.83 120.15C27.39 120.26 28.61 115.64 29.14 114.28C31.19 109.12 33.76 104.15 35.81 98.98C36.33 97.67 36.85 94.08 38.52 93.83C41.49 93.38 45.17 96.16 47.43 97.74C53.65 102.1 59.38 108.08 66.38 111.15C69.99 112.73 75.12 114.41 78.5 111.43C77.05 110.93 73.34 112.49 68.98 110.84C61.39 107.96 55.19 100.81 48.58 96.25C47.05 95.19 40.16 92.41 39.87 91.83C41.25 89.21 46.77 86.68 49.27 84.78C55.41 80.12 61.1 74.85 66.45 69.28C67.93 67.73 74.29 61.69 73.59 59.83ZM129.5 74.08C123.19 77.6 121.14 97.32 112.33 96.17C112.33 94.5 112.33 92.83 112.33 91.17C110.01 90.83 108.4 96.27 105.17 95.91C104.22 94.43 105.59 92.55 104.81 91.02C103.26 87.99 98.54 94.14 97.5 95.21C96.53 93.84 98.53 90.99 98.99 89.49C99.54 87.69 100.4 83.55 101.85 82.35C104.57 80.09 115.03 79.27 118.77 78.5C114.67 77.04 104.9 81.5 102.5 79.57C102.83 78.2 103.17 76.84 103.5 75.48C100.71 73.58 98.44 80.92 96.15 81.97C91.14 84.27 80.52 84.78 76.87 88.5C80.28 90.26 89.82 83.69 93.93 84.5C92.81 89.7 87.77 97.58 82.5 99.15C81.1 98 82.58 96.12 81.98 94.5C81.45 94.28 80.92 94.06 80.39 93.83C80.09 93.27 79.8 92.7 79.5 92.13C76.98 92.75 74.84 101.88 70.83 99.97C69.45 98.07 72.19 96.14 69.46 94.34C65.77 91.92 61.26 99.71 61.18 102.5C64.05 104.9 66.27 100.69 68.5 99.43C71.74 107.2 77.05 93.66 80.06 95.44C80.06 96.79 80.06 98.15 80.06 99.5C83.27 102.6 87.25 96.15 89.5 94.63C89.81 96.04 87.71 100.96 90.83 100.76C91.63 99.72 90.88 97.78 91.17 96.33C91.73 93.43 95.64 83.11 98.83 83.1C99.49 85.46 95.6 92.62 94.91 95.48C94.56 96.91 93.18 99.22 95.17 99.88C97.61 97.26 100.06 94.63 102.5 92.01C103.43 93.26 102.34 95.01 103.07 96.44C104.47 99.17 108.16 95.96 109.5 94.94C115.07 101.81 114.92 93.59 119.08 94.17C119.08 95.29 119.08 96.41 119.08 97.54C120.05 96.3 121.02 95.07 121.98 93.83C124.09 93.99 125.89 95.92 128.46 95.85C135.75 95.65 142.71 92.18 149.84 91.08C152.2 90.71 160.24 90.38 161.59 89.5C159.1 87.78 153.85 88.9 151.18 89.73C145.53 91.49 138.9 92.83 133.05 93.84C130.54 94.28 123.84 95.61 124.03 91.5C126.13 90.04 132.72 88.48 131.83 85.2C128.8 84.57 126.07 89.08 123.5 90.17C123.31 87.52 133.94 76.42 129.5 74.08ZM113.51 86.17C112.86 86.61 112.21 87.06 111.57 87.5C111.88 87.94 112.19 88.37 112.5 88.81C114.1 88.37 114.54 87.5 113.51 86.17ZM33.5 94.5C29.83 96.44 26.17 98.39 22.5 100.33C22.38 98.29 31.62 93.76 33.5 94.5ZM68.36 96.17C68.87 98.12 65.13 101.29 63.43 101.83C62.63 100.17 66.45 94.96 68.36 96.17Z" fill="#000000" fill-rule="evenodd" stroke="#000000" stroke-width="0.25" stroke-linejoin="round"/>
<path d="M73.59 59.83C74.29 61.69 67.93 67.73 66.45 69.28C61.1 74.85 55.41 80.12 49.27 84.78C46.77 86.68 41.25 89.21 39.87 91.83C40.16 92.41 47.05 95.19 48.58 96.25C55.19 100.81 61.39 107.96 68.98 110.84C73.34 112.49 77.05 110.93 78.5 111.43C75.12 114.41 69.99 112.73 66.38 111.15C59.38 108.08 53.65 102.1 47.43 97.74C45.17 96.16 41.49 93.38 38.52 93.83C36.85 94.08 36.33 97.67 35.81 98.98C33.76 104.15 31.19 109.12 29.14 114.28C28.61 115.64 27.39 120.26 25.83 120.15C28.85 111.82 31.87 103.49 34.89 95.17C31.44 94.97 22.43 104.59 18.62 101.5C21.14 97.45 27.27 94.97 31.47 93.26C32.91 92.68 35.54 93.11 36.66 91.83C39.81 88.21 41.52 71.32 43.5 68.62C46.29 68.87 44.69 72.33 44.23 74.12C43.26 77.89 39.14 87 39.48 90.17C42.54 89.3 45.47 86.12 47.99 84.16C54.33 79.23 60.13 73.64 65.65 67.81C67.36 65.99 71.06 59.17 73.59 59.83ZM129.5 74.08C133.94 76.42 123.31 87.52 123.5 90.17C126.07 89.08 128.8 84.57 131.83 85.2C132.72 88.48 126.13 90.04 124.03 91.5C123.84 95.61 130.54 94.28 133.05 93.84C138.9 92.83 145.53 91.49 151.18 89.73C153.85 88.9 159.1 87.78 161.59 89.5C160.24 90.38 152.2 90.71 149.84 91.08C142.71 92.18 135.75 95.65 128.46 95.85C125.89 95.92 124.09 93.99 121.98 93.83C121.02 95.07 120.05 96.3 119.08 97.54C119.08 96.41 119.08 95.29 119.08 94.17C114.92 93.59 115.07 101.81 109.5 94.94C108.16 95.96 104.47 99.17 103.07 96.44C102.34 95.01 103.43 93.26 102.5 92.01C100.06 94.63 97.61 97.26 95.17 99.88C93.18 99.22 94.56 96.91 94.91 95.48C95.6 92.62 99.49 85.46 98.83 83.1C95.64 83.11 91.73 93.43 91.17 96.33C90.88 97.78 91.63 99.72 90.83 100.76C87.71 100.96 89.81 96.04 89.5 94.63C87.25 96.15 83.27 102.6 80.06 99.5C80.06 98.15 80.06 96.79 80.06 95.44C77.05 93.66 71.74 107.2 68.5 99.43C66.27 100.69 64.05 104.9 61.18 102.5C61.26 99.71 65.77 91.92 69.46 94.34C72.19 96.14 69.45 98.07 70.83 99.97C74.84 101.88 76.98 92.75 79.5 92.13C79.8 92.7 80.09 93.27 80.39 93.83C80.92 94.06 81.45 94.28 81.98 94.5C82.58 96.12 81.1 98 82.5 99.15C87.77 97.58 92.81 89.7 93.93 84.5C89.82 83.69 80.28 90.26 76.87 88.5C80.52 84.78 91.14 84.27 96.15 81.97C98.44 80.92 100.71 73.58 103.5 75.48C103.17 76.84 102.83 78.2 102.5 79.57C104.9 81.5 114.67 77.04 118.77 78.5C115.03 79.27 104.57 80.09 101.85 82.35C100.4 83.55 99.54 87.69 98.99 89.49C98.53 90.99 96.53 93.84 97.5 95.21C98.54 94.14 103.26 87.99 104.81 91.02C105.59 92.55 104.22 94.43 105.17 95.91C108.4 96.27 110.01 90.83 112.33 91.17C112.33 92.83 112.33 94.5 112.33 96.17C121.14 97.32 123.19 77.6 129.5 74.08ZM113.51 86.17C114.54 87.5 114.1 88.37 112.5 88.81C112.19 88.37 111.88 87.94 111.57 87.5C112.21 87.06 112.86 86.61 113.51 86.17ZM33.5 94.5C31.62 93.76 22.38 98.29 22.5 100.33C26.17 98.39 29.83 96.44 33.5 94.5ZM68.36 96.17C66.45 94.96 62.63 100.17 63.43 101.83C65.13 101.29 68.87 98.12 68.36 96.17Z" fill="#fcfcfc" fill-rule="evenodd" stroke="#fcfcfc" stroke-width="0.25" stroke-linejoin="round"/>
</svg>